<?xml version="1.0" standalone="no"?>
<!DOCTYPE svg PUBLIC "-//W3C//DTD SVG 20010904//EN"
 "http://www.w3.org/TR/2001/REC-SVG-20010904/DTD/svg10.dtd">
<svg version="1.0" xmlns="http://www.w3.org/2000/svg"
 width="700.000000pt" height="700.000000pt" viewBox="0 0 700.000000 700.000000"
 preserveAspectRatio="xMidYMid meet">
<metadata>
Created by potrace 1.14, written by Peter Selinger 2001-2017
</metadata>
<g transform="translate(0.000000,700.000000) scale(0.100000,-0.100000)"
fill="#000000" stroke="none">
<path d="M3425 6981 c-69 -31 -126 -114 -142 -207 -15 -80 -9 -662 6 -709 29
-87 71 -140 134 -170 86 -41 168 -17 234 66 62 79 67 114 67 484 -1 318 -2
332 -23 388 -29 74 -92 141 -146 156 -55 15 -84 13 -130 -8z"/>
<path d="M1875 6564 c-5 -1 -27 -5 -47 -9 -47 -7 -93 -46 -118 -98 -24 -48
-28 -145 -10 -204 6 -21 78 -155 158 -298 172 -304 224 -368 325 -399 105 -33
187 -2 232 88 46 92 32 196 -48 333 -24 43 -54 94 -65 113 -101 178 -198 340
-219 365 -46 54 -170 120 -208 109z"/>
<path d="M5087 6558 c-55 -12 -107 -41 -152 -86 -47 -46 -339 -548 -362 -620
-20 -65 -12 -168 16 -218 35 -62 82 -89 155 -89 78 0 142 32 203 100 49 54
301 483 340 579 46 110 28 233 -43 296 -19 16 -38 30 -42 30 -4 0 -23 4 -42 8
-19 5 -52 5 -73 0z"/>
<path d="M636 5365 c-89 -32 -136 -95 -132 -179 4 -102 76 -199 197 -267 35
-19 141 -80 234 -134 94 -54 185 -107 203 -117 82 -46 201 -56 276 -24 137 59
143 240 14 363 -27 26 -280 183 -294 183 -3 0 -30 16 -60 35 -30 19 -56 35
-58 35 -2 0 -41 22 -87 48 -46 27 -96 52 -110 55 -60 15 -145 16 -183 2z"/>
<path d="M6188 5364 c-38 -12 -423 -227 -563 -316 -86 -54 -146 -152 -147
-239 0 -114 98 -192 232 -184 77 5 134 28 260 105 8 5 100 57 204 117 109 63
207 126 231 150 88 87 116 191 73 273 -21 40 -82 94 -112 98 -62 9 -139 7
-178 -4z"/>
<path d="M3427 5294 c-1 -1 -42 -5 -92 -8 -256 -20 -537 -113 -771 -257 -409
-250 -699 -684 -771 -1154 -16 -105 -9 -450 12 -570 14 -80 27 -143 36 -170
93 -296 146 -402 393 -773 79 -119 159 -247 179 -284 72 -139 111 -272 116
-398 6 -172 77 -277 290 -426 1 -2 -9 -19 -24 -38 -23 -31 -27 -43 -22 -79 5
-34 14 -50 51 -82 l45 -41 -30 -19 c-16 -11 -38 -37 -48 -58 -25 -51 -14 -91
39 -138 l40 -37 -34 -25 c-49 -38 -70 -89 -56 -132 12 -35 64 -88 106 -107 29
-14 30 -25 3 -54 -27 -29 -30 -81 -7 -127 34 -68 195 -150 340 -174 33 -5 53
-18 92 -58 114 -115 284 -110 396 12 21 24 48 43 59 43 25 0 132 27 179 46 66
27 86 38 130 72 75 59 91 121 48 184 l-24 35 51 34 c76 51 94 82 88 152 0 10
-21 37 -45 60 l-44 43 27 18 c85 58 87 145 6 210 l-34 27 39 36 c60 54 64 129
9 179 -19 17 -18 18 29 49 64 44 147 126 183 183 37 59 56 126 63 222 8 134
49 271 119 400 17 30 98 159 182 285 166 252 224 349 278 470 86 192 120 312
152 530 13 88 14 434 2 500 -47 256 -124 456 -251 650 -205 313 -541 567 -907
683 -53 17 -107 33 -120 36 -13 2 -46 9 -74 15 -51 11 -86 16 -165 26 -43 6
-258 13 -263 9z m218 -458 c202 -19 405 -93 590 -215 275 -179 471 -480 522
-796 14 -88 8 -362 -10 -461 -42 -231 -114 -385 -347 -739 -222 -338 -297
-484 -340 -667 -24 -104 -29 -130 -34 -204 -4 -50 -9 -63 -35 -84 -71 -59
-232 -119 -370 -138 -193 -27 -431 22 -580 118 -50 32 -61 45 -62 67 0 16 -2
35 -3 43 -2 8 -6 42 -10 74 -12 109 -58 256 -122 391 -43 91 -105 193 -224
370 -228 340 -291 461 -345 671 -34 129 -36 146 -40 329 -5 182 7 272 57 418
147 440 580 775 1063 822 39 4 71 8 72 9 4 3 155 -2 218 -8z"/>
<path d="M245 3769 c-116 -40 -178 -111 -178 -205 0 -68 34 -122 106 -171 74
-50 119 -54 485 -51 l329 3 68 35 c186 96 178 288 -15 379 l-55 26 -340 2
c-322 3 -343 2 -400 -18z"/>
<path d="M5993 3771 c-68 -23 -112 -54 -148 -105 -26 -35 -30 -50 -30 -102 0
-71 25 -116 90 -163 78 -56 117 -61 464 -61 342 0 388 6 461 54 126 83 139
225 29 320 -80 68 -95 70 -474 73 -305 2 -345 1 -392 -16z"/>
<path d="M1248 2499 c-53 -8 -100 -33 -403 -208 -222 -128 -280 -174 -316
-248 -35 -72 -36 -123 -5 -187 37 -76 89 -101 201 -100 82 1 126 15 215 69 19
12 55 33 80 47 192 108 336 193 338 200 2 4 9 8 16 8 21 0 106 97 128 146 73
166 -56 305 -254 273z"/>
<path d="M5606 2489 c-87 -33 -129 -92 -128 -181 1 -57 45 -140 101 -190 41
-36 220 -146 416 -254 28 -15 66 -37 85 -49 80 -49 113 -59 195 -59 95 -1 142
18 189 77 27 34 31 46 31 100 0 141 -65 206 -385 385 -25 14 -99 56 -165 94
-65 38 -135 73 -155 78 -72 19 -133 19 -184 -1z"/>
</g>
</svg>
